<?xml version="1.0" encoding="utf-8"?>
<!-- Generator: Adobe Illustrator 25.4.1, SVG Export Plug-In . SVG Version: 6.00 Build 0)  -->
<svg version="1.1" id="Layer_1" xmlns="http://www.w3.org/2000/svg" xmlns:xlink="http://www.w3.org/1999/xlink" x="0px" y="0px"
	 viewBox="0 0 800 800" style="enable-background:new 0 0 800 800;" xml:space="preserve">
<style type="text/css">
	.st0{fill:none;stroke:#ffffff;stroke-width:64;stroke-miterlimit:333.3333;}
</style>
<polyline class="st0" points="400,783.3 400,591.7 400,496 "/>
<line class="st0" x1="400" y1="304.3" x2="400" y2="16.7"/>
<polyline class="st0" points="511.7,96.7 400,208.3 288.3,96.7 "/>
<polyline class="st0" points="400,783.3 400,591.7 400,496 "/>
<line class="st0" x1="400" y1="304.3" x2="400" y2="16.7"/>
<polyline class="st0" points="288.3,703.3 400,591.7 511.7,703.3 "/>
<polyline class="st0" points="732,591.7 566,496 483,448 "/>
<line class="st0" x1="317" y1="352" x2="68" y2="208.3"/>
<polyline class="st0" points="193,151.3 234,304.3 81.3,345 "/>
<polyline class="st0" points="732,591.7 566,496 483,448 "/>
<line class="st0" x1="317" y1="352" x2="68" y2="208.3"/>
<polyline class="st0" points="607,648.7 566,496 718.7,455 "/>
<line class="st0" x1="317" y1="448" x2="68" y2="591.7"/>
<polyline class="st0" points="483,352 566,304.3 732,208.3 "/>
<polyline class="st0" points="607,151.3 566,304.3 718.7,345 "/>
<line class="st0" x1="317" y1="448" x2="68" y2="591.7"/>
<polyline class="st0" points="483,352 566,304.3 732,208.3 "/>
<polyline class="st0" points="193,648.7 234,496 81.3,455 "/>
<path class="st0" d="M496,400c0.2,53.2-42.8,96.5-96,96.7s-96.5-42.8-96.7-96s42.8-96.5,96-96.7c34.5-0.1,66.4,18.2,83.7,48
	C491.4,366.6,495.9,383.1,496,400z"/>
</svg>
